<?xml version="1.0" encoding="UTF-8" standalone="no"?>
<!-- Generator: Adobe Illustrator 15.0.2, SVG Export Plug-In . SVG Version: 6.00 Build 0)  -->

<svg
   xmlns:dc="http://purl.org/dc/elements/1.1/"
   xmlns:cc="http://creativecommons.org/ns#"
   xmlns:rdf="http://www.w3.org/1999/02/22-rdf-syntax-ns#"
   xmlns:svg="http://www.w3.org/2000/svg"
   xmlns="http://www.w3.org/2000/svg"
   xmlns:sodipodi="http://sodipodi.sourceforge.net/DTD/sodipodi-0.dtd"
   xmlns:inkscape="http://www.inkscape.org/namespaces/inkscape"
   width="136.333"
   height="136.667"
   viewBox="0 0 136.333 136.667"
   id="svg2"
   version="1.1"
   inkscape:version="0.91 r13725"
   sodipodi:docname="menu-icon-1.svg">
  <metadata
     id="metadata10">
    <rdf:RDF>
      <cc:Work
         rdf:about="">
        <dc:format>image/svg+xml</dc:format>
        <dc:type
           rdf:resource="http://purl.org/dc/dcmitype/StillImage" />
        <dc:title></dc:title>
      </cc:Work>
    </rdf:RDF>
  </metadata>
  <defs
     id="defs8" />
  <sodipodi:namedview
     pagecolor="#ffffff"
     bordercolor="#666666"
     borderopacity="1"
     objecttolerance="10"
     gridtolerance="10"
     guidetolerance="10"
     inkscape:pageopacity="0"
     inkscape:pageshadow="2"
     inkscape:window-width="2560"
     inkscape:window-height="1377"
     id="namedview6"
     showgrid="false"
     inkscape:zoom="2.4420993"
     inkscape:cx="100.46396"
     inkscape:cy="80.22815"
     inkscape:window-x="2552"
     inkscape:window-y="-8"
     inkscape:window-maximized="1"
     inkscape:current-layer="svg2" />
  <path
     d="M125.976 58.762h-116.287c-5.351 0-9.689 4.339-9.689 9.691s4.338 9.69 9.689 9.69h116.286c5.353 0 9.691-4.338 9.691-9.69s-4.338-9.691-9.69-9.691zm-116.287-19.381h116.286c5.353 0 9.691-4.338 9.691-9.691s-4.338-9.69-9.69-9.69h-116.287c-5.351 0-9.689 4.338-9.689 9.69s4.338 9.691 9.689 9.691zm116.287 58.143h-116.287c-5.352 0-9.689 4.339-9.689 9.691s4.338 9.69 9.689 9.69h116.286c5.353 0 9.691-4.338 9.691-9.69s-4.338-9.691-9.69-9.691z"
     id="path4"
     style="fill:#666666" />
</svg>
